<svg xmlns="http://www.w3.org/2000/svg" viewBox="0 0 50 50">
							<g>
								<g>
									<path d="M40.1,19.4H2.5C1.1,19.4,0,20.6,0,22v22.6c0,1.4,1.1,2.5,2.5,2.5h37.5c1.4,0,2.5-1.1,2.5-2.5V22
										C42.6,20.6,41.5,19.4,40.1,19.4z M2.5,21.1h37.5c0.5,0,0.9,0.4,0.9,0.9v3.5H1.6V22C1.6,21.5,2,21.1,2.5,21.1z M40.1,45.5H2.5
										c-0.5,0-0.9-0.4-0.9-0.9V31.2H41v13.3C41,45.1,40.6,45.5,40.1,45.5z"></path>
								</g>
								<path d="M30.1,40.1c0-1.2,0.6-2.2,1.5-2.8c-0.5-0.3-1.1-0.5-1.7-0.5c-1.8,0-3.3,1.5-3.3,3.3c0,1.8,1.5,3.3,3.3,3.3
									c0.6,0,1.2-0.2,1.7-0.5C30.8,42.3,30.1,41.2,30.1,40.1z"></path>
								<path class="st1" d="M33.4,36.8c-0.6,0-1.2,0.2-1.7,0.5c0.9,0.6,1.5,1.6,1.5,2.8c0,1.2-0.6,2.2-1.5,2.8c0.5,0.3,1.1,0.5,1.7,0.5
									c1.8,0,3.3-1.5,3.3-3.3C36.7,38.2,35.2,36.8,33.4,36.8z"></path>
								<rect x="5.2" y="38.5" class="st1" width="14.8" height="3.1"></rect>
							</g>
							<g>
								<polyline points="7.7,19.4 6,19.4 5.6,21.1 7.3,21.1"></polyline>
							</g>
							<g>
								<path d="M48,15.3L11.3,7.2c-1.4-0.3-2.7,0.6-3,1.9l-1.8,8.3h23.4L9.1,12.9l0.7-3.4C10,9,10.5,8.7,10.9,8.8l36.7,8.1
									c0.5,0.1,0.8,0.6,0.7,1.1l-0.7,3.4l-3.2-0.7c0.1,0.4,0.2,0.9,0.2,1.3v4.6l1.7,0.4L45,32.7l1,2.9l3.8-17.4
									C50.2,16.9,49.3,15.6,48,15.3z"></path>
							</g>
							<g>
								<g>
									<path d="M289.2,42.6h-37.5c-1.4,0-2.5,1.1-2.5,2.5v22.6c0,1.4,1.1,2.5,2.5,2.5h37.5c1.4,0,2.5-1.1,2.5-2.5V45.2
										C291.8,43.8,290.6,42.6,289.2,42.6z M251.7,44.3h37.5c0.5,0,0.9,0.4,0.9,0.9v3.5h-39.3v-3.5C250.8,44.7,251.2,44.3,251.7,44.3z
										 M289.2,68.6h-37.5c-0.5,0-0.9-0.4-0.9-0.9V54.4h39.3v13.3C290.1,68.2,289.7,68.6,289.2,68.6z"></path>
								</g>
								<path d="M279.3,63.2c0-1.2,0.6-2.2,1.5-2.8c-0.5-0.3-1.1-0.5-1.7-0.5c-1.8,0-3.3,1.5-3.3,3.3s1.5,3.3,3.3,3.3
									c0.6,0,1.2-0.2,1.7-0.5C279.9,65.4,279.3,64.4,279.3,63.2z"></path>
								<path class="st2" d="M282.6,59.9c-0.6,0-1.2,0.2-1.7,0.5c0.9,0.6,1.5,1.6,1.5,2.8s-0.6,2.2-1.5,2.8c0.5,0.3,1.1,0.5,1.7,0.5
									c1.8,0,3.3-1.5,3.3-3.3S284.4,59.9,282.6,59.9z"></path>
								<rect x="254.4" y="61.7" class="st2" width="14.8" height="3.1"></rect>
							</g>
							<g>
								<polyline points="256.9,42.6 255.2,42.6 254.8,44.3 256.5,44.3"></polyline>
							</g>
							<g>
								<path class="st2" d="M297.1,38.5l-36.7-8.1c-1.4-0.3-2.7,0.6-3,1.9l-1.8,8.3h23.4L258.3,36l0.7-3.4c0.1-0.5,0.6-0.8,1.1-0.7
									l36.7,8.1c0.5,0.1,0.8,0.6,0.7,1.1l-0.7,3.4l-3.2-0.7c0.1,0.4,0.2,0.9,0.2,1.3v4.6l1.7,0.4l-1.3,5.8l1,2.9l3.8-17.4
									C299.4,40.1,298.5,38.8,297.1,38.5z"></path>
							</g>
						</svg>