<svg
              xmlns="http://www.w3.org/2000/svg"
              viewBox="0 0 50 50"
            >
              <g>
                <g>
                  <path d="M25,3.6l21.9,10.9v21L25,46.4L3.1,35.5v-21L25,3.6 M25,0.1L0,12.6v24.9l25,12.4l25-12.4V12.6L25,0.1L25,0.1z"></path>
                </g>
                <g>
                  <path d="M9.1,21l-2.7,0.7l-0.7-2.7l4.4-1.3h2.3V33H9.1V21z"></path>
                  <path
                    d="M15.9,30.3l5.1-4.2c1.9-1.6,2.6-2.4,2.6-3.7c0-1.3-0.9-2-2-2c-1.2,0-2,0.7-3.1,2l-2.4-1.9
											c1.5-2,3-3.2,5.7-3.2c3.2,0,5.2,1.9,5.2,4.7v0c0,2.5-1.3,3.8-4,5.9l-2.5,1.9h6.6V33H15.9V30.3z"
                  ></path>
                  <path
                    d="M30,25.4L30,25.4c0-4.5,2.7-7.9,6.8-7.9c4,0,6.7,3.4,6.7,7.8v0c0,4.4-2.7,7.9-6.8,7.9S30,29.8,30,25.4z
											M40.1,25.4L40.1,25.4c0-2.8-1.3-4.9-3.4-4.9c-2,0-3.3,2-3.3,4.8v0c0,2.8,1.3,4.9,3.4,4.9S40.1,28.2,40.1,25.4z"
                  ></path>
                </g>
              </g>
            </svg>